<svg id="Group_9" data-name="Group 9" xmlns="http://www.w3.org/2000/svg" width="25" height="25" viewBox="0 0 25 25">
  <path id="Path_1" data-name="Path 1" d="M-388.5,52.252c3.338,0,3.733.013,5.051.073a6.919,6.919,0,0,1,2.321.431,3.877,3.877,0,0,1,1.437.935,3.878,3.878,0,0,1,.935,1.437,6.919,6.919,0,0,1,.431,2.321c.06,1.318.073,1.713.073,5.051s-.013,3.733-.073,5.051a6.919,6.919,0,0,1-.431,2.321,3.878,3.878,0,0,1-.935,1.437,3.877,3.877,0,0,1-1.437.935,6.919,6.919,0,0,1-2.321.43c-1.318.06-1.713.073-5.051.073s-3.733-.013-5.051-.073a6.92,6.92,0,0,1-2.321-.43,3.877,3.877,0,0,1-1.437-.935,3.878,3.878,0,0,1-.935-1.437,6.918,6.918,0,0,1-.431-2.321c-.06-1.318-.073-1.713-.073-5.051s.013-3.733.073-5.051a6.918,6.918,0,0,1,.431-2.321,3.878,3.878,0,0,1,.935-1.437,3.877,3.877,0,0,1,1.437-.935,6.92,6.92,0,0,1,2.321-.431c1.318-.06,1.713-.073,5.051-.073m0-2.252c-3.395,0-3.82.014-5.154.075a9.177,9.177,0,0,0-3.034.581A6.127,6.127,0,0,0-398.9,52.1a6.127,6.127,0,0,0-1.442,2.214,9.176,9.176,0,0,0-.581,3.034c-.061,1.333-.075,1.759-.075,5.154s.015,3.82.075,5.154a9.176,9.176,0,0,0,.581,3.034A6.127,6.127,0,0,0-398.9,72.9a6.127,6.127,0,0,0,2.214,1.442,9.176,9.176,0,0,0,3.034.581c1.333.061,1.759.075,5.154.075s3.82-.014,5.154-.075a9.176,9.176,0,0,0,3.034-.581A6.127,6.127,0,0,0-378.1,72.9a6.128,6.128,0,0,0,1.442-2.214,9.177,9.177,0,0,0,.581-3.034c.061-1.333.075-1.759.075-5.154s-.015-3.82-.075-5.154a9.177,9.177,0,0,0-.581-3.034A6.128,6.128,0,0,0-378.1,52.1a6.127,6.127,0,0,0-2.214-1.442,9.177,9.177,0,0,0-3.034-.581c-1.333-.061-1.759-.075-5.154-.075Z" transform="translate(401 -50)" fill="#656565"/>
  <path id="Path_2" data-name="Path 2" d="M-370.257,74.324a6.419,6.419,0,0,0-6.419,6.419,6.419,6.419,0,0,0,6.419,6.419,6.419,6.419,0,0,0,6.419-6.419A6.419,6.419,0,0,0-370.257,74.324Zm0,10.586a4.167,4.167,0,0,1-4.167-4.167,4.167,4.167,0,0,1,4.167-4.167,4.167,4.167,0,0,1,4.167,4.167A4.167,4.167,0,0,1-370.257,84.91Z" transform="translate(382.757 -68.243)" fill="#656565"/>
  <circle id="Ellipse_1" data-name="Ellipse 1" cx="1.5" cy="1.5" r="1.5" transform="translate(17.673 4.327)" fill="#656565"/>
</svg>
